<svg width="330" height="126" viewBox="0 0 330 126" fill="none" xmlns="http://www.w3.org/2000/svg">
<rect x="217.771" width="113" height="113" rx="5" transform="rotate(7 217.771 0)" fill="#FFAE00"/>
<path d="M233.365 99.6023C233.127 99.5731 232.945 99.4782 232.82 99.3178L231.621 98.4452C231.579 98.3917 231.534 98.362 231.487 98.3562C231.493 98.3085 231.475 98.258 231.433 98.2045C231.349 98.0975 231.233 97.8655 231.083 97.5086C230.987 97.11 230.945 96.863 230.956 96.7677L231.079 95.7672C231.109 95.529 231.23 95.3263 231.444 95.1591C231.706 94.9978 231.905 94.7563 232.041 94.4345C232.236 94.0232 232.519 93.6952 232.887 93.4503C233.256 93.2053 233.639 93.0348 234.038 92.9387C234.24 92.8668 234.416 92.8158 234.565 92.7857C234.761 92.7615 234.937 92.7105 235.091 92.6328C235.395 92.5249 235.63 92.578 235.797 92.792L235.806 92.7205C236.032 92.845 236.259 92.9696 236.485 93.0941C236.718 93.171 236.923 93.2688 237.102 93.3875C237.287 93.4585 237.415 93.5952 237.487 93.7974C237.774 94.2195 237.986 94.6567 238.124 95.1088C238.298 95.6621 238.335 96.1503 238.234 96.5732L237.862 97.8332C237.797 97.9703 237.732 98.1074 237.666 98.2444C237.601 98.3815 237.491 98.4889 237.337 98.5667L237.016 98.8174C236.523 99.2888 235.815 99.5404 234.892 99.5722C234.696 99.5965 234.502 99.5969 234.312 99.5735C234.169 99.5559 233.996 99.5831 233.794 99.655C233.687 99.7386 233.544 99.721 233.365 99.6023ZM259.94 109.394C259.761 109.275 259.6 109.207 259.457 109.19C259.26 109.214 259.1 109.146 258.974 108.985C258.807 108.771 258.679 108.635 258.589 108.575L255.441 106.448C255.262 106.329 255.083 106.21 254.904 106.092C254.726 105.973 254.52 105.875 254.288 105.798C253.698 105.484 253.081 105.191 252.437 104.918C251.841 104.652 251.248 104.361 250.658 104.047C250.342 103.863 250.005 103.652 249.647 103.415C249.337 103.184 249.03 102.928 248.726 102.649C248.422 102.37 248.12 102.067 247.822 101.74C247.577 101.372 247.359 100.982 247.168 100.572L246.818 99.8759C246.596 99.3167 246.446 98.7663 246.368 98.2247C246.337 97.6889 246.33 97.1561 246.346 96.6262C246.369 96.0486 246.436 95.5007 246.548 94.9825C246.714 94.4225 246.876 93.8863 247.036 93.374L247.754 91.0683C247.908 90.6036 248.083 90.1656 248.278 89.7544C248.474 89.3432 248.693 88.9349 248.936 88.5295C249.061 88.303 249.203 88.127 249.364 88.0016C249.774 87.8102 250.113 87.61 250.381 87.4011C250.541 87.2757 250.761 87.2544 251.041 87.3371C251.274 87.414 251.524 87.348 251.791 87.139L252.112 86.8883C252.165 86.8465 252.287 86.8373 252.478 86.8607C252.621 86.8782 252.764 86.8958 252.907 86.9133C253.05 86.9309 253.19 86.9722 253.327 87.0374C253.422 87.0491 253.512 87.1085 253.595 87.2155C253.762 87.4294 253.989 87.554 254.275 87.589C254.454 87.7077 254.534 87.8385 254.517 87.9815C254.558 88.035 254.576 88.0855 254.571 88.1332C254.565 88.1808 254.583 88.2314 254.624 88.2849C254.607 88.4278 254.693 88.511 254.884 88.5344C255.217 88.5753 255.391 88.7416 255.403 89.0333L255.333 89.605C255.536 89.9201 255.644 90.2235 255.656 90.5152C255.693 91.0034 255.62 91.4054 255.436 91.7213L255.151 92.2667C254.979 92.4874 254.849 92.7615 254.76 93.0892C254.677 93.3692 254.595 93.6492 254.512 93.9292C254.388 94.5427 254.315 95.1382 254.292 95.7158C254.322 95.8646 254.326 96.0342 254.302 96.2248C254.285 96.3677 254.291 96.5136 254.321 96.6624C254.269 97.0911 254.418 97.448 254.77 97.733C254.901 97.8459 255.03 97.9825 255.155 98.143C255.334 98.2617 255.513 98.3804 255.692 98.4991C256.055 98.6888 256.416 98.9023 256.774 99.1397C257.137 99.3294 257.501 99.5191 257.864 99.7089C258.001 99.7741 258.139 99.8393 258.276 99.9044C258.413 99.9696 258.553 100.011 258.696 100.029C259.488 100.271 260.29 100.635 261.1 101.122L261.717 101.415C262.176 101.617 262.643 101.553 263.119 101.225C263.386 101.016 263.651 100.83 263.912 100.669C264.18 100.46 264.424 100.248 264.643 100.033C265.945 98.8875 266.909 97.5309 267.537 95.9637C267.804 95.3678 268.022 94.766 268.194 94.1583C268.413 93.5565 268.608 92.9518 268.779 92.3442C268.951 91.7365 269.071 91.1468 269.142 90.5751C269.265 89.9616 269.365 89.3452 269.441 88.7259L269.818 85.6529C269.794 85.4565 269.791 85.2868 269.808 85.1439C269.832 84.9533 269.831 84.7599 269.807 84.5634C269.819 84.4681 269.807 84.3699 269.771 84.2688C269.783 84.1735 269.791 84.1021 269.797 84.0544C269.879 83.3874 269.913 82.7146 269.9 82.0359C269.934 81.3631 269.965 80.714 269.994 80.0888C270.017 79.8983 270.017 79.7048 269.993 79.5084C270.016 79.3178 270.016 79.1243 269.991 78.9279C270.003 78.8326 269.991 78.7344 269.955 78.6332C269.973 78.4903 269.987 78.3712 269.999 78.2759C270.033 77.6031 270.02 76.9244 269.959 76.2399C269.945 75.5612 269.929 74.9063 269.91 74.2752C269.908 73.5013 269.856 72.7453 269.753 72.0072C269.698 71.2751 269.622 70.5161 269.525 69.7305C269.452 69.1412 269.427 68.5578 269.449 67.9802C269.478 67.355 269.482 66.7269 269.463 66.0959C269.481 65.9529 269.519 65.8368 269.579 65.7473C269.703 65.5208 269.854 65.2734 270.032 65.0051C270.216 64.6891 270.359 64.5132 270.46 64.4773C270.567 64.3937 270.62 64.3519 270.62 64.3519C270.787 64.1789 270.986 64.1308 271.218 64.2077C271.504 64.2428 271.707 64.1709 271.825 63.992C271.825 63.992 271.858 63.9235 271.923 63.7864C272.036 63.6552 272.179 63.6727 272.352 63.8391C272.441 63.8984 272.554 63.9607 272.692 64.0259C272.829 64.0911 272.945 64.1295 273.04 64.1412C273.135 64.1529 273.237 64.117 273.344 64.0334C273.641 63.9732 274.291 64.3915 275.293 65.2883L275.418 65.4488C275.413 65.4964 275.5 65.7731 275.679 66.2788C275.912 66.7427 276.038 67.0966 276.057 67.3407C276.4 69.2689 276.658 71.3075 276.829 73.4564L276.912 74.5547C276.896 75.4716 276.931 76.3705 277.016 77.2515C277.101 78.1324 277.136 79.0314 277.12 79.9483C277.139 80.5793 277.135 81.2074 277.106 81.8326C277.084 82.4102 277.085 82.9907 277.11 83.5741C277.147 84.0622 277.157 84.5712 277.14 85.1011C277.124 85.631 277.107 86.161 277.09 86.6909C277.145 87.0361 277.145 87.4231 277.093 87.8518C277.04 88.2806 277.014 88.6885 277.015 89.0755C276.992 89.2661 276.962 89.5043 276.927 89.7901C276.898 90.0283 276.845 90.2636 276.768 90.496C276.679 90.8236 276.615 91.1542 276.574 91.4877C276.539 91.7735 276.501 92.0832 276.46 92.4167C276.389 92.9884 276.272 93.5543 276.106 94.1143C275.994 94.6325 275.858 95.1478 275.699 95.6601C275.51 96.4107 275.273 97.1555 274.989 97.8943C274.711 98.5856 274.406 99.2977 274.074 100.031L273.407 101.327C272.683 102.496 271.87 103.605 270.967 104.655C270.516 105.179 270.029 105.603 269.505 105.926C269.083 106.213 268.635 106.52 268.159 106.849C267.737 107.135 267.315 107.422 266.893 107.709C266.37 108.031 265.802 108.324 265.189 108.588C264.624 108.857 264.038 109.099 263.431 109.315C263.378 109.357 263.303 109.372 263.208 109.36C263.16 109.354 263.086 109.369 262.985 109.405C262.699 109.37 262.41 109.359 262.119 109.371C261.821 109.432 261.523 109.492 261.226 109.552C261.029 109.576 260.812 109.574 260.574 109.544C260.383 109.521 260.172 109.471 259.94 109.394ZM292.439 115.488L291.25 115.124C290.643 114.953 290.011 114.779 289.356 114.602C288.748 114.43 288.114 114.28 287.453 114.15C286.786 114.069 286.142 113.796 285.522 113.333C284.943 112.923 284.579 112.347 284.429 111.603C284.41 111.359 284.368 111.112 284.302 110.862C284.283 110.618 284.265 110.374 284.247 110.13C284.317 109.558 284.489 109.144 284.762 108.887C285.029 108.678 285.249 108.463 285.421 108.243C285.641 108.028 285.858 107.837 286.072 107.67C286.179 107.586 286.283 107.527 286.384 107.491C286.485 107.455 286.587 107.419 286.688 107.383C286.943 107.269 287.193 107.203 287.437 107.185C287.687 107.119 287.934 107.076 288.178 107.058C288.279 107.022 288.351 107.031 288.393 107.084C288.488 107.096 288.559 107.105 288.607 107.111C288.839 107.188 289.096 107.267 289.376 107.35C289.662 107.385 289.918 107.465 290.144 107.59L293.093 108.387C293.748 108.564 294.356 108.542 294.915 108.32C295.117 108.248 295.295 108.174 295.45 108.096C295.652 108.024 295.831 107.949 295.985 107.871C297.11 107.381 298.094 106.849 298.938 106.275C299.574 105.822 300.186 105.365 300.775 104.905C301.363 104.445 301.91 103.932 302.414 103.365C302.801 102.978 303.068 102.575 303.216 102.158C303.369 101.693 303.452 101.22 303.463 100.738L303.318 100.14C303.3 99.8955 303.228 99.6932 303.103 99.5327C302.977 99.3722 302.855 99.1879 302.735 98.9798C302.479 98.7065 302.225 98.4094 301.974 98.0884C301.771 97.7733 301.538 97.5029 301.276 97.2773C300.631 96.6178 299.984 95.9822 299.334 95.3704C298.731 94.7644 298.105 94.1555 297.454 93.5437C297.419 93.4426 297.287 93.3298 297.061 93.2052C296.667 92.8667 296.276 92.5044 295.889 92.1183C295.554 91.6903 295.217 91.2862 294.877 90.9059C294.459 90.371 293.99 89.8541 293.471 89.3551C293.203 89.177 292.97 88.9067 292.773 88.5439C292.612 88.2823 292.355 88.009 292.003 87.724C291.693 87.4925 291.41 87.2401 291.153 86.9668C290.902 86.6458 290.649 86.3487 290.392 86.0754L289.568 85.1037C289.407 84.8421 289.219 84.6014 289.004 84.3816C288.843 84.12 288.658 83.8554 288.449 83.588C288.383 83.3381 288.263 83.13 288.09 82.9636C287.965 82.8032 287.842 82.6189 287.723 82.4107C287.687 82.3096 287.627 82.2055 287.543 82.0986C287.466 81.9439 287.412 81.7922 287.382 81.6435C287.166 81.0367 286.927 80.4269 286.663 79.8143C286.448 79.2075 286.259 78.5798 286.096 77.9312C286 77.5325 285.901 77.1576 285.799 76.8066C285.751 76.4137 285.699 76.0447 285.645 75.6995C285.644 75.3125 285.59 74.9673 285.482 74.6639C285.428 74.3187 285.373 73.9735 285.319 73.6283C285.288 73.0926 285.23 72.5777 285.146 72.0837C285.115 71.548 285.081 71.036 285.044 70.5479L284.972 69.9587C284.988 69.4287 285.05 68.9285 285.156 68.4579C285.333 67.8026 285.549 67.2247 285.804 66.724C286.065 66.1757 286.43 65.7611 286.9 65.4803C287.423 65.1576 287.946 64.835 288.47 64.5123C288.993 64.1897 289.531 63.9414 290.084 63.7676C290.18 63.7793 290.254 63.7642 290.307 63.7224C290.831 63.3998 291.387 63.2021 291.976 63.1294C292.571 63.009 293.163 62.9125 293.753 62.8397C296.121 62.4535 298.541 62.2429 301.012 62.2077L301.727 62.2954C302.203 62.3539 302.656 62.4095 303.084 62.4622C303.513 62.5148 303.969 62.5466 304.451 62.5574C305.023 62.6276 305.586 62.7693 306.14 62.9824C306.7 63.1479 307.227 63.3819 307.722 63.6844C308.08 63.9218 308.434 64.183 308.786 64.468C309.144 64.7054 309.475 64.9636 309.779 65.2428C310.125 65.5755 310.326 65.9144 310.38 66.2596L310.533 66.7861C310.718 67.2442 310.782 67.7114 310.723 68.1878C310.718 68.6224 310.639 69.0721 310.485 69.5368C310.468 69.6798 310.423 69.8436 310.352 70.0283C310.335 70.1712 310.317 70.3142 310.3 70.4571C310.028 71.4877 309.428 72.2362 308.501 72.7026C307.918 73.1147 307.204 73.2204 306.358 73.0198C306.179 72.9011 306.078 72.9371 306.055 73.1276C306.031 73.3182 305.9 73.3989 305.662 73.3696L305.233 73.317C304.948 73.2819 304.679 73.1039 304.429 72.7829C304.22 72.5154 304.124 72.3103 304.141 72.1673C304.165 71.9768 304.278 71.8455 304.48 71.7736C304.414 71.5237 304.345 71.2976 304.273 71.0954C304.201 70.8931 304.123 70.7385 304.04 70.6315C303.926 70.3757 303.732 70.1827 303.458 70.0523C303.226 69.9754 302.993 69.8985 302.761 69.8216C302.529 69.7447 302.296 69.6678 302.064 69.5909C301.873 69.5675 301.659 69.5412 301.421 69.512C301.188 69.4351 300.956 69.3582 300.724 69.2813C300.587 69.2161 300.369 69.2136 300.072 69.2738C299.923 69.3039 299.774 69.334 299.625 69.3641C299.482 69.3465 299.319 69.3022 299.134 69.2312C298.991 69.2136 298.824 69.1932 298.634 69.1698C298.491 69.1522 298.318 69.1794 298.116 69.2513L296.732 69.2989C295.952 69.3483 295.178 69.5435 294.411 69.8845C294.262 69.9146 294.114 69.9447 293.965 69.9748C293.816 70.0049 293.673 69.9873 293.536 69.9221C293.256 69.8394 293.009 69.8816 292.795 70.0488C292.736 70.1382 292.608 70.195 292.411 70.2193C292.268 70.2017 292.144 70.2347 292.037 70.3183C291.823 70.4855 291.704 70.6644 291.68 70.8549C291.716 70.9561 291.723 71.1019 291.699 71.2925L292.665 75.836C292.857 76.6334 293.127 77.3919 293.473 78.1115C293.874 78.7894 294.298 79.4702 294.746 80.1539C295.439 81.2061 296.173 82.1184 296.949 82.8907L298.999 85.101C299.423 85.5883 299.873 86.0547 300.35 86.5002C300.828 86.9456 301.281 87.3882 301.711 87.8278C302.361 88.4396 303.008 89.0753 303.653 89.7347C304.303 90.3465 304.951 90.9822 305.595 91.6416C306.108 92.1882 306.598 92.7319 307.063 93.2727C307.582 93.7717 308.048 94.3125 308.46 94.895C308.747 95.3171 309.033 95.7392 309.32 96.1613C309.607 96.5834 309.84 97.0472 310.02 97.5529C310.289 98.1179 310.498 98.7724 310.649 99.5163C310.824 100.457 310.837 101.329 310.69 102.133C310.631 102.222 310.59 102.362 310.566 102.553C310.496 103.125 310.357 103.664 310.15 104.17C309.996 104.635 309.768 105.115 309.466 105.609C309.169 106.057 308.845 106.525 308.495 107.014C308.198 107.461 307.854 107.902 307.462 108.338C306.91 108.898 306.336 109.433 305.742 109.94C305.201 110.406 304.589 110.862 303.905 111.31C303.537 111.555 303.165 111.824 302.791 112.117C302.422 112.361 302.033 112.58 301.622 112.771C301.361 112.932 301.102 113.07 300.846 113.183C300.585 113.345 300.323 113.506 300.061 113.667C299.859 113.739 299.654 113.835 299.446 113.955C299.238 114.074 299.03 114.194 298.821 114.313C298.608 114.48 298.352 114.594 298.054 114.654C297.798 114.768 297.546 114.858 297.296 114.924L295.118 115.527C294.672 115.617 294.231 115.66 293.797 115.655C293.362 115.65 292.909 115.594 292.439 115.488Z" fill="black"/>
<path d="M21.672 108.158C20.76 108.062 20.016 107.726 19.44 107.15C18.672 106.382 18.144 105.446 17.856 104.342C17.664 103.382 17.376 102.446 16.992 101.534L15.912 98.654C15.624 97.886 15.336 97.142 15.048 96.422C14.76 95.702 14.472 94.982 14.184 94.262L13.752 93.038C13.656 92.846 13.56 92.678 13.464 92.534C13.416 92.342 13.344 92.15 13.248 91.958C13.152 91.718 13.032 91.478 12.888 91.238C12.792 90.95 12.672 90.686 12.528 90.446C12.336 89.918 12.144 89.39 11.952 88.862C11.76 88.334 11.544 87.806 11.304 87.278C11.256 87.182 11.208 87.086 11.16 86.99C11.112 86.846 11.04 86.702 10.944 86.558C10.656 85.886 10.344 85.214 10.008 84.542C9.72 83.822 9.408 83.102 9.072 82.382L6.912 77.414C6.576 76.598 6.216 75.782 5.832 74.966C5.496 74.15 5.16 73.334 4.824 72.518L4.392 71.294C4.344 71.15 4.296 71.006 4.248 70.862C4.2 70.718 4.128 70.574 4.032 70.43C4.032 70.334 4.008 70.238 3.96 70.142C3.912 70.046 3.888 69.974 3.888 69.926C3.792 69.542 3.648 69.182 3.456 68.846C3.312 68.462 3.144 68.102 2.952 67.766L2.592 66.974C2.544 66.83 2.472 66.686 2.376 66.542C2.328 66.398 2.256 66.254 2.16 66.11C2.208 65.87 2.232 65.63 2.232 65.39C2.232 65.15 2.256 64.934 2.304 64.742C2.448 64.07 2.544 63.71 2.592 63.662C2.64 63.566 2.952 63.302 3.528 62.87C3.576 62.822 3.696 62.75 3.888 62.654C4.224 62.414 4.536 62.318 4.824 62.366C5.016 62.366 5.184 62.342 5.328 62.294C5.52 62.198 5.712 62.174 5.904 62.222C6.192 62.222 6.384 62.246 6.48 62.294C6.768 62.39 6.936 62.438 6.984 62.438C7.416 62.534 7.704 62.726 7.848 63.014C7.896 63.062 7.944 63.11 7.992 63.158C8.04 63.206 8.088 63.254 8.136 63.302C8.664 63.734 8.976 64.286 9.072 64.958C9.168 65.294 9.264 65.654 9.36 66.038C9.504 66.374 9.648 66.71 9.792 67.046C10.032 67.574 10.272 68.126 10.512 68.702C10.752 69.278 10.968 69.83 11.16 70.358C11.448 70.982 11.712 71.606 11.952 72.23C12.24 72.854 12.528 73.502 12.816 74.174C13.056 74.702 13.296 75.254 13.536 75.83C13.776 76.358 13.992 76.886 14.184 77.414C14.376 77.798 14.544 78.206 14.688 78.638C14.88 79.022 15.048 79.43 15.192 79.862L15.264 80.15C15.648 80.918 15.984 81.71 16.272 82.526C16.608 83.294 16.944 84.086 17.28 84.902C17.376 85.046 17.448 85.19 17.496 85.334C17.544 85.478 17.592 85.622 17.64 85.766C17.832 85.958 17.976 86.198 18.072 86.486C18.216 86.774 18.336 87.038 18.432 87.278C18.576 87.662 18.72 88.046 18.864 88.43C19.008 88.766 19.176 89.126 19.368 89.51C19.464 89.846 19.584 90.158 19.728 90.446C19.92 90.686 20.112 90.95 20.304 91.238C20.4 91.286 20.496 91.262 20.592 91.166C20.784 90.782 20.952 90.422 21.096 90.086C21.288 89.702 21.456 89.318 21.6 88.934C21.744 88.502 21.888 88.094 22.032 87.71C22.224 87.278 22.392 86.846 22.536 86.414C22.536 86.366 22.536 86.342 22.536 86.342C22.584 86.342 22.608 86.318 22.608 86.27C22.848 85.55 23.088 84.83 23.328 84.11C23.568 83.39 23.784 82.67 23.976 81.95L25.056 77.918C25.344 76.814 25.632 75.71 25.92 74.606C26.208 73.502 26.52 72.422 26.856 71.366C26.904 71.126 26.952 70.91 27 70.718C27.096 70.526 27.168 70.334 27.216 70.142L28.728 66.398C28.824 66.158 28.92 65.966 29.016 65.822C29.112 65.63 29.184 65.438 29.232 65.246C29.472 64.862 29.664 64.454 29.808 64.022C29.952 63.59 30.096 63.158 30.24 62.726C30.288 62.534 30.336 62.366 30.384 62.222C30.432 62.03 30.432 61.838 30.384 61.646C30.336 61.502 30.36 61.286 30.456 60.998L30.888 59.99C31.176 59.222 31.68 58.694 32.4 58.406C32.64 58.262 32.88 58.142 33.12 58.046C33.36 57.854 33.6 57.806 33.84 57.902C34.176 57.95 34.488 57.998 34.776 58.046C35.112 58.094 35.424 58.166 35.712 58.262C36.096 58.406 36.384 58.646 36.576 58.982C36.672 59.078 36.744 59.174 36.792 59.27C36.84 59.366 36.888 59.462 36.936 59.558L37.152 60.134C37.248 60.23 37.32 60.326 37.368 60.422C37.464 60.47 37.512 60.566 37.512 60.71C37.512 60.902 37.512 61.094 37.512 61.286C37.56 61.43 37.584 61.622 37.584 61.862C37.344 62.87 37.056 63.782 36.72 64.598C36.672 64.79 36.6 65.006 36.504 65.246C36.408 65.438 36.312 65.654 36.216 65.894C36.168 65.942 36.144 66.014 36.144 66.11C35.808 66.734 35.52 67.382 35.28 68.054C35.088 68.678 34.848 69.326 34.56 69.998C34.368 70.478 34.176 70.958 33.984 71.438C33.84 71.87 33.672 72.326 33.48 72.806C33.288 73.286 33.12 73.766 32.976 74.246C32.88 74.726 32.784 75.206 32.688 75.686C32.64 75.878 32.592 76.07 32.544 76.262C32.496 76.406 32.448 76.55 32.4 76.694C32.256 77.318 32.112 77.942 31.968 78.566C31.824 79.19 31.656 79.814 31.464 80.438C31.368 80.918 31.248 81.374 31.104 81.806C30.96 82.238 30.84 82.67 30.744 83.102C30.744 83.15 30.72 83.198 30.672 83.246C30.672 83.294 30.672 83.342 30.672 83.39C30.48 83.678 30.336 83.966 30.24 84.254C30.192 84.542 30.12 84.83 30.024 85.118C29.928 85.406 29.808 85.718 29.664 86.054C29.568 86.342 29.448 86.63 29.304 86.918C28.968 87.542 28.776 88.19 28.728 88.862C28.68 88.958 28.632 89.078 28.584 89.222C28.584 89.366 28.536 89.51 28.44 89.654L27.576 91.814C27.48 92.006 27.408 92.174 27.36 92.318C27.168 93.038 26.976 93.782 26.784 94.55C26.592 95.27 26.376 95.99 26.136 96.71C25.944 97.382 25.8 98.078 25.704 98.798C25.608 99.518 25.512 100.214 25.416 100.886C25.32 101.702 25.344 102.422 25.488 103.046C25.536 103.286 25.56 103.55 25.56 103.838C25.56 104.126 25.56 104.39 25.56 104.63C25.608 105.11 25.488 105.542 25.2 105.926C25.104 106.022 25.008 106.214 24.912 106.502C24.432 107.414 23.664 107.942 22.608 108.086C22.464 108.086 22.32 108.086 22.176 108.086C22.032 108.134 21.864 108.158 21.672 108.158ZM55.5649 106.718C55.5169 106.67 55.4449 106.646 55.3489 106.646C54.8689 106.358 54.3889 106.094 53.9089 105.854C53.4769 105.566 53.0689 105.254 52.6849 104.918C52.4929 104.822 52.3729 104.726 52.3249 104.63C51.8929 104.39 51.5089 104.102 51.1729 103.766C50.8369 103.382 50.5249 102.974 50.2369 102.542C50.1409 102.446 50.0449 102.326 49.9489 102.182C49.8529 102.038 49.7329 101.894 49.5889 101.75C49.1089 101.27 48.7249 100.694 48.4369 100.022C48.3889 99.878 48.3169 99.734 48.2209 99.59C48.1249 99.446 48.0289 99.302 47.9329 99.158C47.6449 98.774 47.4289 98.414 47.2849 98.078C47.1889 97.694 47.0449 97.334 46.8529 96.998C46.6609 96.614 46.4689 96.254 46.2769 95.918C46.2289 95.726 46.1569 95.534 46.0609 95.342C45.9649 95.15 45.8929 94.958 45.8449 94.766C45.8449 94.526 45.7729 94.262 45.6289 93.974C45.4369 93.446 45.2449 92.918 45.0529 92.39C44.9089 91.814 44.7649 91.238 44.6209 90.662C44.5249 90.47 44.4769 90.326 44.4769 90.23C44.1889 89.606 43.9729 88.958 43.8289 88.286C43.6849 87.614 43.5409 86.966 43.3969 86.342L42.9649 83.102C42.9169 83.006 42.8929 82.886 42.8929 82.742C42.8929 82.598 42.8929 82.478 42.8929 82.382C42.8929 82.094 42.8929 81.83 42.8929 81.59C42.8929 81.302 42.8449 81.014 42.7489 80.726C42.6529 80.102 42.6769 79.526 42.8209 78.998C42.8209 78.806 42.8209 78.638 42.8209 78.494C42.8689 78.302 42.8929 78.11 42.8929 77.918C42.8929 77.678 42.8929 77.438 42.8929 77.198C42.9409 76.91 42.9889 76.67 43.0369 76.478C43.0849 76.334 43.1089 76.142 43.1089 75.902C43.2049 75.47 43.2529 75.062 43.2529 74.678C43.3009 74.246 43.3489 73.838 43.3969 73.454C43.5409 72.782 43.6129 72.134 43.6129 71.51C43.6129 71.318 43.6129 71.15 43.6129 71.006C43.6609 70.814 43.7089 70.622 43.7569 70.43C43.7569 69.998 43.7329 69.686 43.6849 69.494C43.5409 69.302 43.5169 69.038 43.6129 68.702C43.7089 68.51 43.7569 68.366 43.7569 68.27C43.8049 68.174 43.8289 68.078 43.8289 67.982C43.8289 67.838 43.9009 67.742 44.0449 67.694H44.5489C44.7409 67.694 44.8609 67.622 44.9089 67.478C44.9569 67.286 45.1249 67.142 45.4129 67.046C45.6529 66.95 45.8689 66.878 46.0609 66.83C46.2529 66.734 46.4449 66.614 46.6369 66.47C46.7809 66.374 46.9489 66.326 47.1409 66.326C47.3329 66.326 47.5249 66.35 47.7169 66.398L49.0129 66.83C49.0609 66.878 49.0849 66.902 49.0849 66.902C49.1329 66.902 49.1809 66.926 49.2289 66.974C49.6129 67.358 49.9249 67.79 50.1649 68.27C50.4529 68.75 50.6209 69.278 50.6689 69.854C50.6689 70.046 50.6689 70.238 50.6689 70.43C50.6689 70.574 50.6209 70.742 50.5249 70.934C50.4769 71.222 50.4289 71.51 50.3809 71.798C50.3329 72.086 50.2849 72.398 50.2369 72.734C50.1409 73.214 50.0689 73.694 50.0209 74.174C50.0209 74.606 50.0209 75.062 50.0209 75.542C49.9729 75.734 49.9489 75.926 49.9489 76.118C49.9489 76.262 49.9249 76.43 49.8769 76.622C49.8289 77.198 49.8049 77.774 49.8049 78.35C49.8049 78.926 49.8529 79.478 49.9489 80.006C49.9489 80.054 49.9489 80.126 49.9489 80.222C49.9969 80.318 49.9969 80.414 49.9489 80.51C49.9489 80.99 49.9969 81.494 50.0929 82.022C50.1889 82.55 50.2609 83.078 50.3089 83.606C50.3569 84.086 50.4049 84.542 50.4529 84.974C50.5009 85.406 50.5729 85.838 50.6689 86.27C50.7649 86.462 50.8129 86.654 50.8129 86.846C50.8609 87.038 50.9089 87.23 50.9569 87.422C51.1489 88.334 51.3649 89.222 51.6049 90.086C51.8449 90.95 52.1569 91.814 52.5409 92.678C52.7809 93.206 53.0209 93.662 53.2609 94.046C53.6449 94.718 53.9809 95.39 54.2689 96.062C54.4609 96.398 54.6529 96.734 54.8449 97.07C55.0369 97.358 55.2289 97.67 55.4209 98.006C55.6129 98.246 55.8049 98.462 55.9969 98.654C56.1889 98.846 56.3809 99.062 56.5729 99.302C56.8129 99.542 57.1249 99.614 57.5089 99.518C57.7489 99.422 57.9169 99.326 58.0129 99.23C58.2529 99.086 58.4689 98.942 58.6609 98.798C58.9009 98.654 59.1169 98.486 59.3089 98.294C59.8369 97.766 60.3169 97.238 60.7489 96.71C61.2289 96.182 61.6369 95.606 61.9729 94.982C62.2609 94.454 62.5489 93.902 62.8369 93.326C63.1249 92.75 63.3889 92.174 63.6289 91.598C63.9169 90.926 64.1809 90.254 64.4209 89.582C64.7089 88.91 64.9729 88.214 65.2129 87.494C65.4049 87.014 65.5489 86.534 65.6449 86.054C65.7889 85.526 65.8849 85.022 65.9329 84.542C66.0289 84.014 66.1009 83.486 66.1489 82.958C66.2449 82.382 66.2689 81.83 66.2209 81.302C66.2209 81.158 66.2209 81.014 66.2209 80.87C66.2689 80.726 66.2929 80.582 66.2929 80.438C66.3889 80.102 66.4129 79.79 66.3649 79.502C66.3649 79.214 66.3409 78.926 66.2929 78.638C66.2449 77.822 66.1729 77.054 66.0769 76.334C66.0289 75.566 65.9809 74.798 65.9329 74.03C65.9329 73.646 65.9089 73.382 65.8609 73.238C65.8129 72.806 65.7649 72.374 65.7169 71.942C65.7169 71.51 65.6689 71.078 65.5729 70.646V70.07C65.5729 69.59 65.5489 69.134 65.5009 68.702C65.5009 68.222 65.5009 67.742 65.5009 67.262C65.5009 66.878 65.4769 66.542 65.4289 66.254C65.4289 65.918 65.4289 65.582 65.4289 65.246C65.4289 64.814 65.5009 64.454 65.6449 64.166C65.7889 63.926 65.8369 63.734 65.7889 63.59C65.6449 63.302 65.7169 63.086 66.0049 62.942C66.2449 62.702 66.4849 62.51 66.7249 62.366C67.0129 62.222 67.3249 62.126 67.6609 62.078C67.7569 62.03 67.8289 62.006 67.8769 62.006C67.9729 62.006 68.0449 61.982 68.0929 61.934C68.3809 61.694 68.7649 61.622 69.2449 61.718C69.3409 61.766 69.4849 61.79 69.6769 61.79C70.1089 61.886 70.4209 62.054 70.6129 62.294C70.7569 62.438 70.9729 62.606 71.2609 62.798C71.6449 62.99 71.9089 63.23 72.0529 63.518C72.1969 63.806 72.2929 64.118 72.3409 64.454C72.4369 64.934 72.5089 65.39 72.5569 65.822C72.6529 66.254 72.6769 66.71 72.6289 67.19V67.838C72.6289 68.318 72.6289 68.798 72.6289 69.278C72.6769 69.71 72.7249 70.166 72.7729 70.646C72.8209 70.79 72.8449 70.958 72.8449 71.15C72.8449 71.294 72.8449 71.438 72.8449 71.582C72.8449 71.87 72.8449 72.158 72.8449 72.446C72.8929 72.686 72.9409 72.95 72.9889 73.238C73.0369 73.334 73.0609 73.478 73.0609 73.67C73.0129 74.15 73.0129 74.63 73.0609 75.11C73.1569 75.542 73.2289 75.998 73.2769 76.478C73.3249 76.958 73.3489 77.462 73.3489 77.99C73.3969 78.518 73.4209 79.046 73.4209 79.574C73.4689 79.622 73.4689 79.694 73.4209 79.79C73.4209 79.886 73.4209 79.982 73.4209 80.078C73.2769 80.51 73.2529 81.014 73.3489 81.59C73.4449 82.214 73.4209 82.814 73.2769 83.39C73.2289 83.822 73.1809 84.254 73.1329 84.686C73.0849 85.118 73.0129 85.574 72.9169 86.054C72.8209 86.822 72.6529 87.59 72.4129 88.358C72.1729 89.126 71.9329 89.894 71.6929 90.662C71.6929 90.758 71.6209 90.926 71.4769 91.166C71.2849 91.502 71.1169 91.862 70.9729 92.246C70.8289 92.582 70.7089 92.942 70.6129 93.326L70.3969 93.83C70.1569 94.31 69.9409 94.79 69.7489 95.27C69.6049 95.702 69.4129 96.158 69.1729 96.638C69.0289 96.926 68.8849 97.214 68.7409 97.502C68.5969 97.79 68.4289 98.054 68.2369 98.294C68.1889 98.39 68.1169 98.486 68.0209 98.582C67.9249 98.918 67.7809 99.23 67.5889 99.518C67.3969 99.806 67.2049 100.094 67.0129 100.382C66.4849 101.198 65.8609 101.966 65.1409 102.686C64.4689 103.406 63.7249 104.078 62.9089 104.702L62.0449 105.206C61.3729 105.542 60.6529 105.83 59.8849 106.07C59.1649 106.31 58.4209 106.478 57.6529 106.574C57.4129 106.622 57.1489 106.622 56.8609 106.574C56.7169 106.574 56.5729 106.574 56.4289 106.574C56.2849 106.574 56.1409 106.622 55.9969 106.718H55.5649ZM89.2086 106.502C88.9206 106.502 88.7286 106.478 88.6326 106.43C88.3926 106.334 88.1526 106.286 87.9126 106.286C87.7206 106.334 87.5046 106.358 87.2646 106.358C87.2166 106.358 87.1686 106.358 87.1206 106.358C87.0726 106.406 87.0246 106.43 86.9766 106.43C86.6406 106.478 86.3046 106.502 85.9686 106.502C85.6806 106.502 85.3926 106.454 85.1046 106.358C85.0566 106.31 85.0086 106.286 84.9606 106.286C84.6246 106.334 84.3366 106.238 84.0966 105.998C83.8566 105.758 83.6166 105.542 83.3766 105.35C83.1366 105.11 83.0166 104.846 83.0166 104.558L82.8006 103.982C82.6566 103.646 82.6086 103.334 82.6566 103.046C82.7046 102.95 82.7046 102.854 82.6566 102.758C82.6566 102.662 82.6566 102.566 82.6566 102.47C82.6086 102.374 82.5846 102.278 82.5846 102.182C82.5846 102.038 82.5606 101.918 82.5126 101.822C82.4166 101.39 82.3446 100.958 82.2966 100.526C82.2966 100.046 82.3206 99.59 82.3686 99.158C82.4166 98.87 82.5846 98.39 82.8726 97.718C83.1606 96.998 83.3286 96.566 83.3766 96.422C83.5206 96.182 83.5926 95.99 83.5926 95.846C83.5446 95.318 83.5206 94.79 83.5206 94.262C83.5686 93.686 83.5926 93.134 83.5926 92.606C83.5926 92.27 83.6646 92.006 83.8086 91.814C84.0006 91.478 84.0246 91.118 83.8806 90.734L83.6646 89.942C83.3766 89.414 83.4006 88.958 83.7366 88.574C83.7366 88.526 83.7366 88.502 83.7366 88.502C83.7846 88.454 83.8086 88.406 83.8086 88.358C83.9046 88.262 83.9286 88.142 83.8806 87.998C83.8326 87.806 83.8086 87.662 83.8086 87.566C83.8086 87.374 83.8326 87.182 83.8806 86.99C83.9766 86.75 84.0006 86.534 83.9526 86.342C83.9526 86.342 83.9046 86.294 83.8086 86.198C83.7606 86.102 83.7366 85.91 83.7366 85.622C83.7846 85.334 83.8086 85.166 83.8086 85.118V83.102C83.8566 82.862 83.8806 82.646 83.8806 82.454C83.8806 82.214 83.9046 81.974 83.9526 81.734C84.0006 81.446 84.0006 81.158 83.9526 80.87C83.9526 80.534 83.9526 80.198 83.9526 79.862C83.9046 79.622 83.8566 79.358 83.8086 79.07C83.8086 78.782 83.8086 78.494 83.8086 78.206C83.7606 78.11 83.7366 77.99 83.7366 77.846C83.7366 77.702 83.7366 77.582 83.7366 77.486C83.6886 77.246 83.6406 77.006 83.5926 76.766C83.5926 76.526 83.5926 76.286 83.5926 76.046C83.5926 75.95 83.4966 75.638 83.3046 75.11C83.1126 74.534 83.0406 74.054 83.0886 73.67C83.1366 73.574 83.1606 73.454 83.1606 73.31C83.1606 73.166 83.1126 73.046 83.0166 72.95C82.9206 72.902 82.8726 72.806 82.8726 72.662V72.446C83.0166 71.87 82.9446 71.294 82.6566 70.718C82.4646 70.43 82.3926 70.142 82.4406 69.854C82.4406 69.47 82.2726 69.182 81.9366 68.99C81.6966 68.75 81.4806 68.462 81.2886 68.126C81.0966 67.79 80.9766 67.454 80.9286 67.118C80.8806 66.878 80.8566 66.638 80.8566 66.398C80.8566 66.158 80.8566 65.942 80.8566 65.75C80.8566 65.558 80.8806 65.438 80.9286 65.39C81.1206 65.198 81.2166 64.982 81.2166 64.742C81.2166 64.454 81.2406 64.238 81.2886 64.094C81.3366 64.046 81.3846 64.022 81.4326 64.022C81.4806 64.022 81.5286 63.998 81.5766 63.95C81.7686 63.902 81.8646 63.734 81.8646 63.446C81.7686 63.254 81.7206 63.086 81.7206 62.942C81.6726 62.75 81.7446 62.582 81.9366 62.438C82.0326 62.246 82.1526 62.198 82.2966 62.294C82.6326 62.438 83.0166 62.39 83.4486 62.15C83.6406 62.054 83.7606 62.006 83.8086 62.006C83.9526 62.006 84.0246 62.006 84.0246 62.006C84.0726 61.958 84.2166 61.934 84.4566 61.934C84.7446 61.982 85.0086 61.886 85.2486 61.646C85.5846 61.31 85.9926 61.142 86.4726 61.142H90.9366C92.0406 61.19 93.1446 61.19 94.2486 61.142C95.3526 61.094 96.4326 61.07 97.4886 61.07C97.7286 61.07 97.9206 61.07 98.0646 61.07C98.2566 61.022 98.4486 60.974 98.6406 60.926C98.9286 60.782 99.2646 60.71 99.6486 60.71H101.305C101.689 60.71 102.025 60.71 102.313 60.71C102.649 60.662 102.985 60.614 103.321 60.566C103.513 60.518 103.681 60.494 103.825 60.494C104.017 60.494 104.209 60.494 104.401 60.494C104.593 60.494 104.785 60.494 104.977 60.494C105.169 60.494 105.361 60.47 105.553 60.422C105.937 60.374 106.345 60.35 106.777 60.35C107.209 60.302 107.617 60.278 108.001 60.278C108.193 60.278 108.361 60.278 108.505 60.278C108.697 60.23 108.889 60.182 109.081 60.134C109.465 60.038 109.825 59.99 110.161 59.99C110.545 59.942 110.905 59.894 111.241 59.846C111.625 59.798 111.985 59.75 112.321 59.702C112.705 59.654 113.065 59.606 113.401 59.558C113.833 59.558 114.145 59.606 114.337 59.702C114.625 59.894 114.889 60.062 115.129 60.206C115.417 60.35 115.681 60.542 115.921 60.782C116.113 60.974 116.233 61.142 116.281 61.286C116.329 61.478 116.377 61.67 116.425 61.862C116.473 62.054 116.521 62.27 116.569 62.51V63.014C116.521 63.254 116.473 63.518 116.425 63.806C116.425 64.046 116.401 64.31 116.353 64.598C116.257 64.79 116.137 64.958 115.993 65.102L114.697 66.398C114.217 66.542 113.737 66.638 113.257 66.686C112.825 66.734 112.369 66.734 111.889 66.686H111.385C111.145 66.734 110.905 66.758 110.665 66.758C110.425 66.758 110.185 66.734 109.945 66.686C109.657 66.638 109.369 66.638 109.081 66.686C108.793 66.686 108.505 66.686 108.217 66.686C108.025 66.686 107.833 66.71 107.641 66.758C107.497 66.758 107.329 66.734 107.137 66.686C106.897 66.638 106.657 66.638 106.417 66.686C106.225 66.686 106.009 66.71 105.769 66.758C105.577 66.758 105.361 66.782 105.121 66.83C104.929 66.83 104.713 66.83 104.473 66.83C103.849 66.926 103.177 66.974 102.457 66.974C101.785 66.974 101.113 67.022 100.441 67.118C100.009 67.07 99.6006 67.094 99.2166 67.19C98.8326 67.238 98.4246 67.286 97.9926 67.334C97.6086 67.382 97.2006 67.406 96.7686 67.406C96.3366 67.406 95.9286 67.454 95.5446 67.55C95.0646 67.55 94.5846 67.622 94.1046 67.766C93.6726 67.862 93.2166 67.934 92.7366 67.982L92.2326 68.054C91.8966 68.054 91.5846 68.102 91.2966 68.198C91.0086 68.246 90.6966 68.318 90.3606 68.414C90.1686 68.462 89.9766 68.51 89.7846 68.558C89.5926 68.558 89.3766 68.582 89.1366 68.63C88.9926 68.63 88.8246 68.678 88.6326 68.774C88.4886 68.822 88.4166 68.966 88.4166 69.206L88.6326 69.854C88.6806 69.95 88.6566 70.19 88.5606 70.574C88.5126 70.958 88.4646 71.246 88.4166 71.438C88.4166 71.582 88.4406 71.726 88.4886 71.87C88.5366 72.014 88.5846 72.158 88.6326 72.302C88.7766 72.686 88.8486 73.118 88.8486 73.598C88.8486 74.03 88.8966 74.438 88.9926 74.822C89.0406 75.014 89.0646 75.23 89.0646 75.47C89.0646 75.662 89.0886 75.878 89.1366 76.118C89.1366 76.214 89.1366 76.334 89.1366 76.478C89.1846 76.574 89.2086 76.694 89.2086 76.838C89.2086 76.982 89.1846 77.078 89.1366 77.126C88.9926 77.318 88.9206 77.534 88.9206 77.774C88.9206 78.014 88.9206 78.254 88.9206 78.494C89.1606 78.974 89.2806 79.454 89.2806 79.934C89.2806 80.414 89.2806 80.894 89.2806 81.374C89.2806 81.518 89.4006 81.566 89.6406 81.518H89.7126C89.8086 81.326 89.9046 81.182 90.0006 81.086C90.1446 81.086 90.3126 81.038 90.5046 80.942C90.6486 80.846 90.8406 80.798 91.0806 80.798C91.4646 80.846 91.8246 80.846 92.1606 80.798C92.4966 80.702 92.8326 80.606 93.1686 80.51C95.4246 79.934 97.5366 79.19 99.5046 78.278C100.033 78.038 100.585 77.846 101.161 77.702C101.737 77.51 102.313 77.39 102.889 77.342H103.105C103.537 77.294 103.969 77.246 104.401 77.198C104.833 77.15 105.265 77.126 105.697 77.126C106.273 77.078 106.825 77.006 107.353 76.91C107.929 76.814 108.505 76.742 109.081 76.694C109.417 76.598 109.729 76.526 110.017 76.478C110.305 76.382 110.617 76.262 110.953 76.118C111.577 75.878 112.153 75.758 112.681 75.758C113.065 75.806 113.425 75.902 113.761 76.046C114.097 76.142 114.433 76.286 114.769 76.478C115.489 76.958 115.849 77.678 115.849 78.638C115.849 79.022 115.801 79.406 115.705 79.79C115.657 80.174 115.633 80.558 115.633 80.942C115.633 81.038 115.585 81.134 115.489 81.23L115.273 81.59C115.225 81.782 115.177 81.974 115.129 82.166C115.081 82.358 114.961 82.502 114.769 82.598C114.481 82.838 114.169 83.102 113.833 83.39C113.545 83.63 113.209 83.798 112.825 83.894C112.633 83.942 112.441 83.99 112.249 84.038C112.105 84.086 111.937 84.11 111.745 84.11C110.977 84.11 110.185 84.158 109.369 84.254C108.601 84.35 107.809 84.446 106.993 84.542C106.369 84.59 105.745 84.662 105.121 84.758C104.545 84.854 103.945 84.902 103.321 84.902C102.745 84.902 102.097 85.022 101.377 85.262C100.897 85.358 100.393 85.454 99.8646 85.55C99.3366 85.646 98.8086 85.718 98.2806 85.766C97.8966 85.814 97.4886 85.886 97.0566 85.982C96.6726 86.03 96.2886 86.078 95.9046 86.126L94.6806 86.342C94.5846 86.39 94.4406 86.414 94.2486 86.414C93.9126 86.51 93.5766 86.582 93.2406 86.63C92.9046 86.678 92.5686 86.75 92.2326 86.846C91.8966 86.894 91.5606 86.966 91.2246 87.062C90.9366 87.158 90.6246 87.254 90.2886 87.35C90.0486 87.398 89.8566 87.494 89.7126 87.638C89.5686 87.734 89.4486 87.878 89.3526 88.07C89.3046 88.214 89.3046 88.358 89.3526 88.502C89.4006 88.694 89.3766 88.886 89.2806 89.078C89.3286 89.558 89.3526 90.038 89.3526 90.518C89.4006 90.998 89.4006 91.478 89.3526 91.958C89.4486 92.342 89.4726 92.726 89.4246 93.11C89.4246 93.494 89.4006 93.878 89.3526 94.262C89.2566 94.838 89.2806 95.318 89.4246 95.702C89.5686 96.326 89.5206 96.974 89.2806 97.646C89.1846 97.934 89.1846 98.126 89.2806 98.222C89.3766 98.366 89.3766 98.534 89.2806 98.726V99.158C89.2326 99.542 89.4006 99.734 89.7846 99.734H89.9286C90.2646 99.734 90.6006 99.854 90.9366 100.094C91.1766 100.334 91.4646 100.406 91.8006 100.31L93.8166 100.094C94.1046 100.046 94.3926 100.022 94.6806 100.022C94.9686 99.974 95.2566 99.95 95.5446 99.95C95.6406 99.902 95.7846 99.926 95.9766 100.022C96.2166 100.166 96.4326 100.19 96.6246 100.094C96.7206 99.998 96.8406 99.926 96.9846 99.878C97.1766 99.83 97.3206 99.758 97.4166 99.662C97.7046 99.374 98.0646 99.278 98.4966 99.374C98.8806 99.47 99.1926 99.446 99.4326 99.302C99.8646 99.158 100.273 99.11 100.657 99.158C100.897 99.206 101.137 99.182 101.377 99.086C101.617 98.99 101.857 98.942 102.097 98.942C102.193 98.942 102.265 98.966 102.313 99.014C102.361 99.014 102.409 98.99 102.457 98.942C102.553 98.942 102.649 98.918 102.745 98.87C102.841 98.822 102.913 98.798 102.961 98.798C103.297 98.654 103.609 98.606 103.897 98.654C104.137 98.654 104.257 98.654 104.257 98.654C104.449 98.606 104.617 98.606 104.761 98.654C104.953 98.702 105.121 98.774 105.265 98.87C105.505 98.918 105.697 98.99 105.841 99.086C106.033 99.182 106.225 99.254 106.417 99.302C106.513 99.302 106.585 99.326 106.633 99.374C106.873 99.566 107.161 99.734 107.497 99.878C107.881 100.022 108.097 100.19 108.145 100.382C108.241 100.67 108.289 100.958 108.289 101.246C108.289 101.486 108.313 101.75 108.361 102.038C108.361 102.182 108.337 102.326 108.289 102.47C108.289 102.614 108.265 102.758 108.217 102.902C108.121 103.094 108.001 103.31 107.857 103.55C107.761 103.79 107.617 104.006 107.425 104.198C107.329 104.294 107.233 104.39 107.137 104.486C107.089 104.582 107.017 104.678 106.921 104.774C106.729 104.966 106.513 105.134 106.273 105.278C106.033 105.422 105.769 105.494 105.481 105.494C105.289 105.494 105.145 105.518 105.049 105.566C104.857 105.662 104.665 105.71 104.473 105.71C104.281 105.71 104.065 105.71 103.825 105.71C103.489 105.758 103.153 105.806 102.817 105.854C102.529 105.854 102.217 105.83 101.881 105.782C101.689 105.734 101.521 105.734 101.377 105.782C100.897 105.926 100.417 105.95 99.9366 105.854C99.4566 105.854 98.9766 105.878 98.4966 105.926C98.0646 105.926 97.6326 105.926 97.2006 105.926H96.2646C96.1206 105.926 96.0006 105.95 95.9046 105.998C95.7126 106.094 95.4726 106.142 95.1846 106.142C94.9446 106.142 94.7046 106.118 94.4646 106.07H93.7446C93.6966 106.07 93.6246 106.07 93.5286 106.07C93.4326 106.118 93.3366 106.118 93.2406 106.07C93.0966 106.022 92.9526 105.998 92.8086 105.998C92.7126 106.046 92.5926 106.094 92.4486 106.142C92.3526 106.142 92.2566 106.142 92.1606 106.142C92.1126 106.19 92.0406 106.214 91.9446 106.214C91.4646 106.166 91.0086 106.166 90.5766 106.214C90.1446 106.31 89.6886 106.406 89.2086 106.502ZM126.286 99.158C126.046 98.918 125.902 98.678 125.854 98.438C125.806 98.102 125.758 97.766 125.71 97.43C125.71 97.094 125.71 96.758 125.71 96.422C125.662 96.038 125.638 95.654 125.638 95.27C125.686 94.838 125.686 94.43 125.638 94.046C125.638 93.758 125.638 93.47 125.638 93.182C125.638 92.894 125.662 92.606 125.71 92.318C125.758 91.79 125.734 91.286 125.638 90.806C125.59 90.326 125.542 89.846 125.494 89.366C125.446 89.222 125.398 89.078 125.35 88.934C125.35 88.79 125.302 88.646 125.206 88.502C125.062 88.118 124.918 87.782 124.774 87.494C124.678 87.158 124.51 86.822 124.27 86.486C124.174 86.342 124.078 86.174 123.982 85.982C123.79 85.454 123.622 84.926 123.478 84.398C123.334 83.87 123.19 83.342 123.046 82.814C122.902 81.998 122.926 81.23 123.118 80.51C123.262 79.886 123.55 79.358 123.982 78.926C124.03 78.83 124.102 78.734 124.198 78.638C125.062 77.726 126.118 77.27 127.366 77.27C127.75 77.27 128.134 77.27 128.518 77.27C128.902 77.27 129.286 77.294 129.67 77.342C129.814 77.39 129.958 77.414 130.102 77.414C130.246 77.414 130.39 77.414 130.534 77.414C130.822 77.414 131.11 77.438 131.398 77.486C131.734 77.486 132.046 77.486 132.334 77.486H132.694C133.174 77.534 133.63 77.582 134.062 77.63C134.542 77.63 135.022 77.654 135.502 77.702C135.694 77.75 135.862 77.798 136.006 77.846C136.198 77.846 136.39 77.846 136.582 77.846H137.086C137.758 77.99 138.406 78.062 139.03 78.062C139.702 78.014 140.374 77.99 141.046 77.99C141.334 77.99 141.55 77.966 141.694 77.918C142.03 77.822 142.366 77.798 142.702 77.846C143.038 77.846 143.374 77.846 143.71 77.846C143.806 77.846 143.902 77.87 143.998 77.918C144.094 77.918 144.19 77.918 144.286 77.918C144.526 78.014 144.718 78.158 144.862 78.35C144.958 78.542 145.03 78.662 145.078 78.71C145.174 78.854 145.294 78.926 145.438 78.926C145.678 78.83 145.894 78.854 146.086 78.998C146.326 79.094 146.542 79.238 146.734 79.43C147.166 79.766 147.406 80.222 147.454 80.798C147.55 81.278 147.55 81.782 147.454 82.31C147.406 82.79 147.262 83.27 147.022 83.75C146.974 83.798 146.926 83.87 146.878 83.966C146.878 84.062 146.83 84.158 146.734 84.254C146.542 84.494 146.23 84.662 145.798 84.758C145.702 84.758 145.606 84.758 145.51 84.758C145.414 84.71 145.318 84.662 145.222 84.614L145.078 84.47C144.982 84.374 144.79 84.374 144.502 84.47L144.214 84.686C143.878 84.878 143.47 85.022 142.99 85.118C142.702 85.118 142.486 85.142 142.342 85.19C142.054 85.238 141.766 85.262 141.478 85.262C141.238 85.262 140.974 85.238 140.686 85.19H140.254C140.062 85.238 139.822 85.31 139.534 85.406L138.31 85.838C138.118 85.886 137.926 85.958 137.734 86.054C137.542 86.102 137.35 86.174 137.158 86.27C136.678 86.51 136.15 86.678 135.574 86.774C134.902 86.774 134.326 86.942 133.846 87.278C133.798 87.326 133.726 87.35 133.63 87.35C133.534 87.35 133.438 87.374 133.342 87.422C133.054 87.518 132.886 87.59 132.838 87.638C132.454 87.974 131.974 88.142 131.398 88.142H131.326C130.798 88.286 130.366 88.526 130.03 88.862C129.694 89.198 129.526 89.534 129.526 89.87C129.526 90.302 129.478 90.734 129.382 91.166C129.334 91.598 129.286 92.03 129.238 92.462C129.19 92.75 129.166 93.038 129.166 93.326C129.166 93.566 129.142 93.83 129.094 94.118C129.094 94.31 129.094 94.502 129.094 94.694C129.094 94.838 129.07 95.006 129.022 95.198V95.702C129.022 96.038 128.974 96.398 128.878 96.782C128.83 97.118 128.782 97.478 128.734 97.862C128.686 98.198 128.518 98.558 128.23 98.942C128.038 99.23 127.75 99.422 127.366 99.518C126.982 99.566 126.622 99.446 126.286 99.158ZM183.801 107.726C183.369 107.774 182.961 107.774 182.577 107.726C182.193 107.678 181.809 107.486 181.425 107.15C181.329 107.054 181.185 106.958 180.993 106.862C180.753 106.718 180.609 106.55 180.561 106.358C180.513 106.166 180.417 106.022 180.273 105.926C180.129 105.782 180.033 105.614 179.985 105.422C179.937 105.278 179.913 105.134 179.913 104.99C179.961 104.798 179.985 104.63 179.985 104.486C179.985 104.342 179.961 104.198 179.913 104.054C179.913 103.91 179.913 103.766 179.913 103.622C179.769 102.902 179.625 102.182 179.481 101.462C179.337 100.694 179.217 99.95 179.121 99.23C179.073 98.894 179.025 98.558 178.977 98.222C178.929 97.886 178.881 97.55 178.833 97.214C178.785 96.59 178.713 95.966 178.617 95.342C178.569 94.718 178.497 94.094 178.401 93.47C178.305 93.086 178.257 92.75 178.257 92.462C178.257 92.078 178.233 91.718 178.185 91.382C178.137 90.998 178.089 90.638 178.041 90.302C177.993 90.014 177.825 89.87 177.537 89.87L177.033 89.798C176.793 89.75 176.529 89.726 176.241 89.726C175.953 89.726 175.665 89.702 175.377 89.654H174.657C174.561 89.702 174.417 89.726 174.225 89.726C174.033 89.726 173.841 89.726 173.649 89.726C173.505 89.678 173.313 89.678 173.073 89.726C172.881 89.726 172.689 89.75 172.497 89.798C172.353 89.798 172.161 89.774 171.921 89.726C171.873 89.678 171.777 89.678 171.633 89.726C171.537 89.726 171.441 89.726 171.345 89.726C171.105 89.726 170.841 89.75 170.553 89.798C170.313 89.798 170.073 89.798 169.833 89.798C169.689 89.798 169.545 89.798 169.401 89.798C169.257 89.798 169.113 89.822 168.969 89.87C168.633 89.918 168.297 89.966 167.961 90.014C167.625 90.014 167.289 90.014 166.953 90.014C166.473 89.966 165.993 89.966 165.513 90.014C165.033 90.062 164.553 90.11 164.073 90.158H163.857C163.617 90.254 163.497 90.398 163.497 90.59C163.497 90.638 163.473 90.686 163.425 90.734C163.425 90.734 163.425 90.758 163.425 90.806C163.425 91.046 163.449 91.238 163.497 91.382C163.545 91.718 163.593 92.078 163.641 92.462C163.689 92.798 163.737 93.158 163.785 93.542L164.001 95.27C164.049 95.75 164.121 96.23 164.217 96.71C164.313 97.142 164.385 97.574 164.433 98.006C164.481 98.054 164.505 98.126 164.505 98.222C164.505 98.27 164.529 98.342 164.577 98.438C164.673 98.678 164.721 98.942 164.721 99.23C164.721 99.518 164.721 99.806 164.721 100.094C164.817 100.142 164.793 100.238 164.649 100.382C164.601 100.478 164.553 100.574 164.505 100.67C164.457 100.766 164.433 100.862 164.433 100.958C164.289 101.438 163.977 101.894 163.497 102.326C163.017 102.71 162.561 102.926 162.129 102.974C162.081 102.974 162.033 102.998 161.985 103.046C161.937 103.046 161.865 103.046 161.769 103.046C161.145 103.19 160.473 103.142 159.753 102.902L159.537 102.758C159.489 102.566 159.393 102.422 159.249 102.326C159.105 102.23 158.985 102.134 158.889 102.038C158.793 101.894 158.673 101.774 158.529 101.678C158.433 101.534 158.361 101.366 158.313 101.174C158.313 101.126 158.289 101.102 158.241 101.102C158.049 100.862 157.929 100.598 157.881 100.31C157.833 100.022 157.785 99.734 157.737 99.446L157.521 98.294C157.473 97.862 157.401 97.43 157.305 96.998C157.257 96.518 157.209 96.038 157.161 95.558L156.729 92.75C156.681 92.414 156.633 92.078 156.585 91.742C156.537 91.358 156.489 90.998 156.441 90.662L156.225 88.358C156.177 87.878 156.129 87.398 156.081 86.918C156.033 86.438 155.961 85.958 155.865 85.478V84.83C155.865 84.446 155.841 84.062 155.793 83.678C155.793 83.294 155.769 82.934 155.721 82.598C155.673 82.454 155.649 82.31 155.649 82.166C155.649 82.022 155.649 81.878 155.649 81.734C155.649 81.494 155.625 81.278 155.577 81.086C155.577 80.846 155.553 80.606 155.505 80.366L155.289 78.854C155.241 78.326 155.145 77.774 155.001 77.198C154.905 76.622 154.761 76.07 154.569 75.542C154.473 75.254 154.353 74.966 154.209 74.678C154.065 74.342 153.945 74.006 153.849 73.67C153.753 73.286 153.657 73.022 153.561 72.878C153.417 72.398 153.417 71.942 153.561 71.51L153.993 70.43C154.041 70.238 154.185 70.07 154.425 69.926C154.521 69.782 154.641 69.662 154.785 69.566C154.929 69.422 155.073 69.302 155.217 69.206C155.313 69.158 155.433 69.134 155.577 69.134C155.721 69.182 155.913 69.158 156.153 69.062L156.369 68.918C156.801 68.678 157.233 68.678 157.665 68.918C157.905 69.014 158.145 69.11 158.385 69.206C158.673 69.302 158.913 69.47 159.105 69.71C159.393 69.758 159.585 69.974 159.681 70.358L160.329 71.798C160.713 72.614 161.049 73.454 161.337 74.318C161.625 75.182 161.817 76.094 161.913 77.054C161.961 77.39 162.009 77.75 162.057 78.134C162.153 78.47 162.225 78.83 162.273 79.214V79.79C162.273 80.03 162.297 80.198 162.345 80.294C162.393 80.63 162.417 80.99 162.417 81.374C162.465 81.758 162.489 82.142 162.489 82.526V82.67C162.537 82.91 162.681 83.078 162.921 83.174C163.065 83.222 163.209 83.27 163.353 83.318C163.497 83.318 163.641 83.318 163.785 83.318C164.025 83.27 164.217 83.27 164.361 83.318C164.553 83.318 164.745 83.318 164.937 83.318C165.273 83.318 165.585 83.318 165.873 83.318C166.161 83.27 166.473 83.246 166.809 83.246H167.673C167.817 83.246 167.961 83.27 168.105 83.318C168.297 83.318 168.465 83.294 168.609 83.246C168.705 83.246 168.777 83.246 168.825 83.246C168.921 83.198 168.993 83.174 169.041 83.174C169.521 83.222 170.001 83.246 170.481 83.246C170.961 83.198 171.441 83.174 171.921 83.174C172.401 83.222 172.881 83.246 173.361 83.246C173.841 83.198 174.321 83.174 174.801 83.174C175.185 83.174 175.545 83.198 175.881 83.246C176.265 83.246 176.625 83.246 176.961 83.246C177.297 83.246 177.465 83.102 177.465 82.814C177.465 82.574 177.465 82.31 177.465 82.022C177.465 81.734 177.441 81.47 177.393 81.23C177.345 80.702 177.297 80.222 177.249 79.79C177.249 79.31 177.225 78.83 177.177 78.35C177.129 77.678 177.105 77.03 177.105 76.406C177.153 75.734 177.129 75.086 177.033 74.462C176.985 73.934 176.937 73.406 176.889 72.878C176.889 72.35 176.841 71.846 176.745 71.366V70.358C176.745 70.166 176.769 70.022 176.817 69.926C176.817 69.83 176.817 69.758 176.817 69.71C176.865 69.614 176.889 69.542 176.889 69.494C176.889 69.254 176.841 69.11 176.745 69.062L176.529 68.918C176.241 68.726 176.193 68.51 176.385 68.27C176.529 68.078 176.553 67.862 176.457 67.622C176.457 67.478 176.481 67.382 176.529 67.334C176.625 67.19 176.721 67.046 176.817 66.902C176.913 66.758 176.985 66.59 177.033 66.398C177.177 65.87 177.393 65.63 177.681 65.678C178.017 65.678 178.233 65.726 178.329 65.822C178.377 65.87 178.425 65.894 178.473 65.894C178.521 65.846 178.545 65.798 178.545 65.75C178.545 65.462 178.689 65.294 178.977 65.246C179.265 65.198 179.481 65.15 179.625 65.102L180.057 64.814H180.273C180.513 64.91 180.705 65.03 180.849 65.174C181.041 65.27 181.233 65.366 181.425 65.462C181.521 65.51 181.641 65.606 181.785 65.75C182.121 66.182 182.361 66.734 182.505 67.406C182.601 67.886 182.697 68.342 182.793 68.774C182.889 69.206 182.961 69.662 183.009 70.142C183.009 70.238 183.009 70.334 183.009 70.43C183.057 70.526 183.081 70.622 183.081 70.718L183.153 71.222C183.153 71.798 183.177 72.374 183.225 72.95C183.321 73.478 183.393 74.03 183.441 74.606C183.489 74.654 183.513 74.75 183.513 74.894C183.465 75.23 183.441 75.566 183.441 75.902C183.489 76.19 183.537 76.526 183.585 76.91C183.633 77.246 183.657 77.63 183.657 78.062C183.705 78.446 183.729 78.83 183.729 79.214C183.729 79.454 183.729 79.718 183.729 80.006C183.777 80.294 183.825 80.558 183.873 80.798C183.921 81.038 183.945 81.278 183.945 81.518C183.945 81.758 183.945 81.998 183.945 82.238C183.945 82.478 183.945 82.718 183.945 82.958C183.993 83.15 184.041 83.366 184.089 83.606V83.894C184.137 84.47 184.185 85.046 184.233 85.622C184.329 86.15 184.401 86.702 184.449 87.278C184.497 87.326 184.521 87.422 184.521 87.566C184.521 88.094 184.569 88.646 184.665 89.222C184.761 89.75 184.833 90.278 184.881 90.806L185.097 93.326C185.097 93.374 185.097 93.47 185.097 93.614C185.145 93.71 185.169 93.806 185.169 93.902C185.217 93.998 185.241 94.19 185.241 94.478C185.241 94.91 185.265 95.342 185.313 95.774C185.409 96.206 185.481 96.638 185.529 97.07C185.625 97.55 185.697 98.03 185.745 98.51C185.793 98.99 185.865 99.494 185.961 100.022C186.057 100.598 186.177 101.174 186.321 101.75C186.465 102.326 186.585 102.902 186.681 103.478C186.729 103.67 186.753 103.886 186.753 104.126C186.801 104.318 186.825 104.534 186.825 104.774C186.825 105.014 186.753 105.254 186.609 105.494C186.561 105.542 186.513 105.638 186.465 105.782C186.465 105.878 186.417 105.974 186.321 106.07C186.273 106.118 186.249 106.166 186.249 106.214C186.249 106.262 186.225 106.286 186.177 106.286C185.985 106.334 185.817 106.454 185.673 106.646C185.529 106.838 185.361 106.982 185.169 107.078C184.977 107.27 184.713 107.414 184.377 107.51L183.801 107.726ZM222.518 111.254C222.086 111.254 221.702 111.086 221.366 110.75C221.27 110.606 221.174 110.462 221.078 110.318C220.982 110.174 220.886 110.03 220.79 109.886C220.358 108.878 220.142 107.822 220.142 106.718L219.926 104.99C219.782 104.318 219.662 103.646 219.566 102.974C219.47 102.302 219.302 101.654 219.062 101.03L218.63 99.806C218.63 99.71 218.606 99.614 218.558 99.518C218.558 99.422 218.534 99.326 218.486 99.23L217.406 95.414C217.358 95.318 217.31 95.198 217.262 95.054C217.262 94.91 217.214 94.79 217.118 94.694C216.974 94.406 216.854 94.118 216.758 93.83C216.71 93.494 216.638 93.158 216.542 92.822C216.494 92.582 216.446 92.366 216.398 92.174C216.35 91.934 216.278 91.694 216.182 91.454C216.086 91.166 215.99 90.998 215.894 90.95C215.798 90.854 215.582 90.854 215.246 90.95C215.006 90.998 214.742 91.046 214.454 91.094C214.214 91.094 213.974 91.142 213.734 91.238C213.542 91.286 213.302 91.334 213.014 91.382C212.774 91.382 212.534 91.406 212.294 91.454L211.286 91.67C211.046 91.718 210.782 91.79 210.494 91.886C210.254 91.934 210.014 91.958 209.774 91.958L208.478 92.174C208.094 92.27 207.686 92.366 207.254 92.462C206.822 92.558 206.414 92.654 206.03 92.75C204.878 93.038 203.726 93.254 202.574 93.398C202.19 93.494 201.974 93.662 201.926 93.902C201.878 93.902 201.854 93.926 201.854 93.974C201.566 94.742 201.23 95.51 200.846 96.278C200.51 96.998 200.15 97.742 199.766 98.51C199.67 98.702 199.574 98.894 199.478 99.086C199.43 99.23 199.358 99.398 199.262 99.59C199.214 99.686 199.166 99.806 199.118 99.95C199.07 100.046 199.022 100.142 198.974 100.238C198.686 100.574 198.542 100.982 198.542 101.462C198.494 101.75 198.398 102.038 198.254 102.326C198.11 102.566 197.966 102.806 197.822 103.046C197.774 103.19 197.678 103.262 197.534 103.262C197.342 103.31 197.15 103.382 196.958 103.478C196.766 103.574 196.55 103.67 196.31 103.766C196.166 103.814 196.022 103.814 195.878 103.766C195.782 103.718 195.662 103.67 195.518 103.622C195.422 103.526 195.326 103.478 195.23 103.478C194.702 103.43 194.318 103.118 194.078 102.542C193.694 101.774 193.43 101.006 193.286 100.238C193.238 100.046 193.238 99.878 193.286 99.734C193.382 99.59 193.454 99.446 193.502 99.302C193.79 99.11 193.958 98.894 194.006 98.654V98.582C194.006 97.958 194.126 97.382 194.366 96.854C194.654 96.278 194.894 95.726 195.086 95.198C195.182 94.91 195.302 94.622 195.446 94.334C195.59 94.046 195.734 93.758 195.878 93.47C196.07 93.134 196.214 92.822 196.31 92.534C196.454 92.198 196.574 91.862 196.67 91.526C196.814 91.142 196.814 90.782 196.67 90.446C196.574 90.158 196.526 89.894 196.526 89.654C196.526 89.366 196.55 89.078 196.598 88.79C196.598 88.262 196.79 87.806 197.174 87.422C197.366 87.182 197.558 86.99 197.75 86.846C197.99 86.654 198.206 86.462 198.398 86.27C198.83 85.838 199.166 85.262 199.406 84.542C199.598 83.918 199.742 83.294 199.838 82.67C199.982 81.998 200.126 81.35 200.27 80.726C200.366 80.102 200.462 79.502 200.558 78.926C200.702 78.302 200.846 77.702 200.99 77.126C201.038 76.886 201.086 76.67 201.134 76.478C201.23 76.238 201.302 76.022 201.35 75.83C201.494 75.446 201.638 75.086 201.782 74.75C201.926 74.366 202.022 73.982 202.07 73.598C202.166 73.406 202.166 73.238 202.07 73.094C202.022 72.854 202.022 72.638 202.07 72.446C202.166 72.254 202.238 72.062 202.286 71.87C202.43 71.534 202.526 71.198 202.574 70.862C202.67 70.526 202.79 70.19 202.934 69.854C203.174 69.23 203.366 68.726 203.51 68.342C203.702 67.91 203.87 67.43 204.014 66.902C204.11 66.614 204.206 66.35 204.302 66.11C204.446 65.822 204.542 65.534 204.59 65.246C204.734 64.814 204.854 64.382 204.95 63.95C205.046 63.47 205.094 63.014 205.094 62.582C205.19 62.198 205.286 61.934 205.382 61.79C205.622 61.31 205.91 60.902 206.246 60.566C206.63 60.23 206.99 59.894 207.326 59.558C207.566 59.414 207.806 59.318 208.046 59.27C208.286 59.174 208.526 59.198 208.766 59.342C208.958 59.438 209.078 59.486 209.126 59.486C209.558 59.438 209.918 59.534 210.206 59.774C210.494 60.014 210.734 60.302 210.926 60.638C211.022 60.734 211.094 60.854 211.142 60.998C211.19 61.142 211.238 61.262 211.286 61.358C211.526 61.742 211.646 62.126 211.646 62.51C211.646 62.702 211.67 62.918 211.718 63.158C211.766 63.35 211.814 63.566 211.862 63.806C212.006 64.094 212.222 64.238 212.51 64.238C212.558 64.19 212.606 64.19 212.654 64.238C212.702 64.286 212.726 64.334 212.726 64.382C212.966 64.67 213.038 64.982 212.942 65.318C212.846 65.702 212.822 66.086 212.87 66.47C212.966 66.806 213.062 67.166 213.158 67.55C213.35 68.03 213.542 68.51 213.734 68.99C213.926 69.47 214.118 69.95 214.31 70.43C214.55 70.958 214.79 71.486 215.03 72.014C215.27 72.542 215.486 73.07 215.678 73.598C215.918 74.27 216.158 74.942 216.398 75.614C216.686 76.286 216.998 76.958 217.334 77.63L217.55 78.422C217.598 78.614 217.646 78.806 217.694 78.998C217.79 79.19 217.862 79.382 217.91 79.574C218.006 79.718 218.078 79.862 218.126 80.006C218.222 80.15 218.318 80.27 218.414 80.366C218.654 80.702 218.798 81.062 218.846 81.446C218.99 81.926 219.206 82.358 219.494 82.742C219.59 82.886 219.734 82.958 219.926 82.958C220.646 82.862 221.366 82.79 222.086 82.742C222.806 82.646 223.526 82.502 224.246 82.31C224.774 82.166 225.278 82.094 225.758 82.094C226.67 82.094 227.51 82.406 228.278 83.03C229.19 83.75 229.67 84.662 229.718 85.766C229.718 86.006 229.742 86.198 229.79 86.342C229.79 86.678 229.694 86.942 229.502 87.134C229.454 87.278 229.358 87.422 229.214 87.566C229.118 87.71 229.022 87.854 228.926 87.998C228.83 88.19 228.734 88.334 228.638 88.43L228.206 88.79C228.158 88.886 228.086 89.006 227.99 89.15C227.894 89.246 227.774 89.318 227.63 89.366C227.438 89.414 227.246 89.486 227.054 89.582C226.862 89.63 226.646 89.654 226.406 89.654C225.542 89.75 224.774 89.726 224.102 89.582H222.95C222.854 89.582 222.71 89.63 222.518 89.726C222.326 89.822 222.23 89.942 222.23 90.086V90.374C222.374 90.806 222.47 91.262 222.518 91.742C222.614 92.174 222.758 92.582 222.95 92.966C222.95 93.158 222.998 93.35 223.094 93.542C223.334 93.974 223.526 94.43 223.67 94.91C223.814 95.342 223.934 95.798 224.03 96.278C224.03 96.374 224.078 96.566 224.174 96.854C224.318 97.19 224.438 97.55 224.534 97.934C224.63 98.27 224.702 98.63 224.75 99.014C224.75 99.302 224.822 99.566 224.966 99.806C225.158 100.238 225.302 100.67 225.398 101.102C225.494 101.534 225.566 101.99 225.614 102.47C225.662 102.518 225.686 102.614 225.686 102.758C225.686 102.854 225.71 102.95 225.758 103.046C225.998 103.574 226.166 104.15 226.262 104.774C226.358 105.35 226.478 105.926 226.622 106.502C226.718 106.79 226.766 107.078 226.766 107.366C226.814 107.702 226.838 108.038 226.838 108.374C226.838 108.614 226.766 108.878 226.622 109.166C226.478 109.31 226.406 109.382 226.406 109.382C226.118 109.43 225.95 109.598 225.902 109.886L225.686 110.318C225.59 110.51 225.446 110.63 225.254 110.678C225.062 110.678 224.894 110.75 224.75 110.894C224.558 111.086 224.294 111.182 223.958 111.182C223.766 111.182 223.526 111.182 223.238 111.182C222.998 111.182 222.758 111.206 222.518 111.254ZM205.166 85.118C205.454 85.07 205.742 85.022 206.03 84.974C206.366 84.926 206.726 84.878 207.11 84.83C207.35 84.782 207.662 84.734 208.046 84.686C208.43 84.638 208.79 84.59 209.126 84.542C209.462 84.446 209.798 84.398 210.134 84.398C210.47 84.35 210.806 84.302 211.142 84.254C211.43 84.158 211.718 84.11 212.006 84.11C212.294 84.062 212.582 84.014 212.87 83.966C213.302 83.87 213.47 83.63 213.374 83.246C213.326 82.862 213.23 82.478 213.086 82.094C212.99 81.662 212.774 81.302 212.438 81.014C212.342 80.918 212.294 80.774 212.294 80.582V80.366C212.198 79.982 212.078 79.622 211.934 79.286C211.838 78.902 211.718 78.542 211.574 78.206C211.478 77.822 211.358 77.486 211.214 77.198C211.118 76.862 210.998 76.526 210.854 76.19L209.99 73.598C209.846 73.262 209.702 72.926 209.558 72.59C209.462 72.254 209.366 71.918 209.27 71.582L209.054 71.294H208.838L208.694 71.51C208.454 72.23 208.166 72.95 207.83 73.67C207.542 74.39 207.278 75.158 207.038 75.974C207.038 76.07 207.014 76.19 206.966 76.334C206.918 76.478 206.87 76.622 206.822 76.766C206.63 77.246 206.438 77.774 206.246 78.35C206.102 78.926 205.982 79.502 205.886 80.078C205.838 80.414 205.79 80.75 205.742 81.086C205.694 81.374 205.622 81.686 205.526 82.022L204.878 84.83C204.83 84.878 204.854 84.95 204.95 85.046C205.046 85.094 205.118 85.118 205.166 85.118Z" fill="white"/>
</svg>
